<svg width="512" height="99" viewBox="0 0 512 99" fill="none" xmlns="http://www.w3.org/2000/svg">
<path fill-rule="evenodd" clip-rule="evenodd" d="M231.416 24.3824C218.706 27.14 211.798 36.6533 211.798 51.3966C211.798 59.7631 214.298 67.2011 218.686 71.8924C223.512 77.0523 230.217 79.2867 240.875 79.2867C251.674 79.2867 258.147 77.112 263.176 71.7946C267.94 66.7578 269.97 60.7312 269.97 51.6283C269.97 41.8735 267.908 35.8577 262.825 30.7869C257.713 25.6863 251.161 23.56 240.774 23.6295C237.43 23.6522 233.22 23.991 231.416 24.3824ZM350.02 24.3124C348.023 24.6909 345.068 25.385 343.454 25.8542L340.519 26.7074V32.1557V37.6045L341.935 37.2425C348.16 35.6528 351.235 35.2599 357.77 35.2197C366.693 35.1651 369.318 35.9324 370.916 39.0649C371.474 40.1602 371.932 41.9924 371.932 43.1367V45.2171L362.534 45.2202C357.365 45.2217 351.861 45.4334 350.303 45.6903C339.913 47.4051 334.147 53.4853 334.149 62.7257C334.152 73.2828 341.594 79.3614 354.423 79.2831C360.777 79.2445 364.689 78.334 369.246 75.8318C371.026 74.8545 372.576 74.0547 372.691 74.0547C372.806 74.0547 372.971 74.924 373.059 75.9858L373.219 77.9169L380.071 78.0606L386.922 78.2048L386.758 58.4922C386.612 40.7946 386.497 38.517 385.638 36.2053C383.594 30.7082 379.81 27.2471 373.477 25.0807C370.675 24.1224 368.785 23.9102 361.89 23.7794C356.527 23.678 352.383 23.8639 350.02 24.3124ZM412.776 24.3325C405.561 25.97 401.614 28.6993 399.114 33.7773C397.512 37.0318 397.422 37.5144 397.422 42.889C397.423 47.7666 397.595 48.9464 398.651 51.2828C399.823 53.8766 404.285 58.606 405.56 58.606C405.868 58.606 405.069 59.2729 403.783 60.0886C400.793 61.9846 399.229 64.5357 398.859 68.1193C398.523 71.3718 399.564 74.7715 401.433 76.5275C404.176 79.1044 405.855 79.3964 419.823 79.7218C428.745 79.9299 433.325 80.2322 434.113 80.6642C435.407 81.3749 435.72 83.86 434.628 84.7555C433.12 85.9909 428.997 86.5244 421.11 86.5049C413.511 86.4858 407.509 85.7839 400.126 84.0511C398.803 83.7406 398.709 83.8297 398.709 85.3926C398.709 90.5782 402.496 95.4677 407.721 97.0285C412.54 98.4678 429.896 98.3504 435.351 96.8411C445.401 94.0603 449.175 90.0498 449.175 82.154C449.175 75.6573 446.461 71.7158 440.323 69.297C437.927 68.3531 436.105 68.1821 425.596 67.9185C415.727 67.6708 413.517 67.4808 413.116 66.8453C411.86 64.854 413.044 63.2586 416.759 61.9378C418.569 61.2936 420.185 61.1921 424.457 61.4553C433.754 62.0274 439.607 60.1565 443.947 55.2258C446.652 52.1531 447.864 48.5823 447.878 43.6506C447.886 40.4228 447.653 39.3141 446.496 37.0849L445.105 34.403H448.942C452.665 34.403 452.78 34.3654 452.78 33.1491C452.78 30.4713 450.588 27.0355 447.888 25.4829C446.896 24.9118 440.047 24.4591 423.685 23.8819C418.055 23.6836 415.097 23.8057 412.776 24.3325ZM478.785 24.1126C470.86 25.6925 464.59 30.6149 461.593 37.6101C459.08 43.4781 458.319 52.1495 459.731 58.8182C461.915 69.1256 468.091 75.3864 478.881 78.2305C486.317 80.1899 500.227 79.4772 506.936 76.7922L508.91 76.0028V70.5916C508.91 65.2232 508.901 65.183 507.752 65.5183C502.475 67.0575 498.758 67.5565 492.432 67.575C480.681 67.6095 475.737 65.1465 473.657 58.2198L473.309 57.0611H492.655H512V50.2173C512 40.0469 510.591 35.6332 505.691 30.4522C501.155 25.6554 495.157 23.5528 486.273 23.6455C483.288 23.6764 479.918 23.8865 478.785 24.1126ZM152.049 27.3094C152.615 28.8033 157.335 40.8013 162.538 53.9714L171.998 77.9169H180.416H188.835L199.244 51.3966L209.652 24.8763L201.873 24.7336C197.594 24.6553 193.936 24.7712 193.744 24.9911C193.552 25.211 190.536 33.56 187.042 43.5435C183.548 53.5275 180.539 61.6957 180.357 61.6957C180.174 61.6957 177.136 53.4111 173.604 43.286L167.183 24.8763L159.101 24.7346L151.02 24.5925L152.049 27.3094ZM417.581 32.8802C412.917 34.0528 411.068 36.8475 411.068 42.7283C411.068 47.4675 412.102 49.6159 415.239 51.3935C417.271 52.5444 418.066 52.6742 422.912 52.6469C427.474 52.6206 428.668 52.4353 430.551 51.4589C433.724 49.8136 434.967 46.8928 434.642 41.8415C434.205 35.0317 431.713 32.8483 424.04 32.5532C421.579 32.459 418.672 32.6058 417.581 32.8802ZM482.867 34.8973C477.035 35.7918 474.112 38.7739 473.529 44.4205L473.234 47.2769H485.993H498.752L498.486 43.9616C498.001 37.9222 495.195 35.3181 488.569 34.7578C486.87 34.6141 484.304 34.6769 482.867 34.8973ZM236.947 36.9639C230.084 38.1895 227.744 41.9327 227.744 51.6829C227.744 59.4927 229.093 62.5176 233.666 64.9528C235.366 65.8592 236.622 66.0523 240.875 66.0615C249.101 66.0796 252.122 64.08 253.809 57.5009C255.013 52.8065 254.581 46.3062 252.807 42.4322C251.622 39.8445 251.162 39.3744 248.748 38.2852C245.668 36.8959 240.542 36.3217 236.947 36.9639ZM351.442 56.0261C347.916 57.6271 346.628 62.2014 348.733 65.6537C349.975 67.6909 351.14 68.3289 354.666 68.9026C359.942 69.7615 365.842 68.2687 370.258 64.958C371.915 63.7154 371.932 63.6603 371.932 59.3522V55.0013L362.791 55.0126C354.85 55.0224 353.361 55.1553 351.442 56.0261Z" fill="#037E73"/>
<path fill-rule="evenodd" clip-rule="evenodd" d="M275.278 31.183C290.236 63.9333 295.727 76.1352 295.715 76.6007C295.708 76.8989 293.799 81.6257 291.473 87.1048C289.147 92.584 287.379 97.2016 287.544 97.3669C288.106 97.9292 295.571 96.4678 297.756 95.3673C302.742 92.8554 306.761 88.3134 310.706 80.7307C311.743 78.7388 317.65 65.1826 323.834 50.6057C331.532 32.458 334.864 24.0519 334.401 23.9417C332.952 23.5972 327.589 24.9494 324.605 26.4119C318.225 29.5377 315.417 32.9704 310.912 43.1558L308.178 49.3353L307.918 58.862L307.658 68.3887L305.677 64.269C304.587 62.0032 301.5 55.0513 298.818 48.8203C296.135 42.5893 293.397 36.5643 292.734 35.4314C289.731 30.3004 282.722 25.5015 276.562 24.3593C271.485 23.418 271.557 23.0359 275.278 31.183Z" fill="#FF6361"/>
<path d="M0 77.8956V4.48699H52.6626V16.4558H15.3884V35.2639H48.4451V47.1187H15.3884V66.0408H52.6626V77.8956H0Z" fill="#037E73"/>
<path d="M83.6826 77.9682C78.8951 77.9682 74.6015 77.1323 70.8019 75.4604C67.0783 73.7126 64.1526 70.9009 62.0248 67.0253C59.897 63.0737 58.8331 57.8682 58.8331 51.4088C58.8331 44.9495 60.011 39.516 62.3668 35.1085C64.7225 30.7009 67.8762 27.3572 71.8278 25.0775C75.7794 22.7977 80.111 21.6578 84.8225 21.6578C90.7499 21.6578 95.8034 23.0257 99.983 25.7614V0H115.371V76.8283H102.149L101.237 71.8128C98.8811 73.8646 96.2973 75.4224 93.4856 76.4863C90.7499 77.4742 87.4822 77.9682 83.6826 77.9682ZM87.9002 66.6833C92.6877 66.6833 96.7153 65.0495 99.983 61.7818V37.1603C96.7913 34.3485 93.0677 32.9427 88.8121 32.9427C79.2371 32.9427 74.4496 39.0981 74.4496 51.4088C74.4496 57.1842 75.6274 61.1739 77.9832 63.3776C80.339 65.5814 83.6446 66.6833 87.9002 66.6833Z" fill="#037E73"/>
</svg>
